<svg width="139" height="29" viewBox="0 0 139 29" fill="none" xmlns="http://www.w3.org/2000/svg">
<rect x="0.661621" y="0.5" width="137.248" height="27.2139" rx="9.5" fill="#7B8421" stroke="#7B8421"/>
<path d="M45.1165 15.1332C45.7492 15.2632 46.2302 15.5189 46.5595 15.9002C46.8888 16.2729 47.0535 16.7626 47.0535 17.3692C47.0535 18.1579 46.7718 18.7646 46.2085 19.1892C45.6538 19.6139 44.8348 19.8262 43.7515 19.8262H39.7215V10.7262H43.5045C44.4752 10.7262 45.2335 10.9256 45.7795 11.3242C46.3255 11.7229 46.5985 12.2992 46.5985 13.0532C46.5985 13.5646 46.4685 13.9979 46.2085 14.3532C45.9485 14.6999 45.5845 14.9599 45.1165 15.1332ZM40.6705 14.8472H43.4525C44.1545 14.8472 44.6918 14.7042 45.0645 14.4182C45.4458 14.1322 45.6365 13.7162 45.6365 13.1702C45.6365 12.6242 45.4458 12.2082 45.0645 11.9222C44.6918 11.6362 44.1545 11.4932 43.4525 11.4932H40.6705V14.8472ZM43.7515 19.0592C45.3202 19.0592 46.1045 18.4742 46.1045 17.3042C46.1045 16.1602 45.3202 15.5882 43.7515 15.5882H40.6705V19.0592H43.7515ZM53.2678 13.9762C54.3425 13.9762 55.1615 14.2189 55.7248 14.7042C56.2968 15.1896 56.5828 15.9002 56.5828 16.8362C56.5828 17.8156 56.2795 18.5609 55.6728 19.0722C55.0748 19.5749 54.2081 19.8262 53.0728 19.8262H49.4588V10.7262H50.4078V13.9762H53.2678ZM53.0468 19.0592C53.8875 19.0592 54.5245 18.8729 54.9578 18.5002C55.3998 18.1276 55.6208 17.5772 55.6208 16.8492C55.6208 15.4539 54.7628 14.7562 53.0468 14.7562H50.4078V19.0592H53.0468ZM58.1558 10.7262H59.1048V19.8262H58.1558V10.7262ZM62.1668 10.7262H68.8228V11.5452H63.1158V14.5222H66.0928C67.1675 14.5222 67.9821 14.7432 68.5368 15.1852C69.1001 15.6272 69.3818 16.2686 69.3818 17.1092C69.3818 17.9846 69.0785 18.6562 68.4718 19.1242C67.8738 19.5922 67.0115 19.8262 65.8848 19.8262H62.1668V10.7262ZM65.8718 19.0592C66.7125 19.0592 67.3451 18.8989 67.7698 18.5782C68.2031 18.2576 68.4198 17.7809 68.4198 17.1482C68.4198 16.5242 68.2075 16.0606 67.7828 15.7572C67.3668 15.4452 66.7298 15.2892 65.8718 15.2892H63.1158V19.0592H65.8718ZM75.0181 10.7262C76.1795 10.7262 77.0895 11.0036 77.7481 11.5582C78.4068 12.1129 78.7361 12.8756 78.7361 13.8462C78.7361 14.8169 78.4068 15.5796 77.7481 16.1342C77.0895 16.6802 76.1795 16.9532 75.0181 16.9532H72.5741V19.8262H71.6121V10.7262H75.0181ZM74.9921 16.1082C75.8935 16.1082 76.5825 15.9132 77.0591 15.5232C77.5358 15.1246 77.7741 14.5656 77.7741 13.8462C77.7741 13.1096 77.5358 12.5462 77.0591 12.1562C76.5825 11.7576 75.8935 11.5582 74.9921 11.5582H72.5741V16.1082H74.9921ZM86.0816 17.3952H81.0116L79.9196 19.8262H78.9186L83.0786 10.7262H84.0276L88.1876 19.8262H87.1736L86.0816 17.3952ZM85.7306 16.6152L83.5466 11.7272L81.3626 16.6152H85.7306ZM95.4284 11.5582H92.2304V19.8262H91.2814V11.5582H88.0834V10.7262H95.4284V11.5582ZM100.926 13.9762C102.001 13.9762 102.82 14.2189 103.383 14.7042C103.955 15.1896 104.241 15.9002 104.241 16.8362C104.241 17.8156 103.938 18.5609 103.331 19.0722C102.733 19.5749 101.866 19.8262 100.731 19.8262H97.117V10.7262H98.066V13.9762H100.926ZM100.705 19.0592C101.546 19.0592 102.183 18.8729 102.616 18.5002C103.058 18.1276 103.279 17.5772 103.279 16.8492C103.279 15.4539 102.421 14.7562 100.705 14.7562H98.066V19.0592H100.705Z" fill="white"/>
</svg>
