<svg width="139" height="29" viewBox="0 0 139 29" fill="none" xmlns="http://www.w3.org/2000/svg">
<rect x="0.740723" y="0.5" width="137.248" height="27.2139" rx="9.5" fill="white" stroke="#7B8421"/>
<path d="M39.1165 15.1332C39.7492 15.2632 40.2302 15.5189 40.5595 15.9002C40.8888 16.2729 41.0535 16.7626 41.0535 17.3692C41.0535 18.1579 40.7718 18.7646 40.2085 19.1892C39.6538 19.6139 38.8348 19.8262 37.7515 19.8262H33.7215V10.7262H37.5045C38.4752 10.7262 39.2335 10.9256 39.7795 11.3242C40.3255 11.7229 40.5985 12.2992 40.5985 13.0532C40.5985 13.5646 40.4685 13.9979 40.2085 14.3532C39.9485 14.6999 39.5845 14.9599 39.1165 15.1332ZM34.6705 14.8472H37.4525C38.1545 14.8472 38.6918 14.7042 39.0645 14.4182C39.4458 14.1322 39.6365 13.7162 39.6365 13.1702C39.6365 12.6242 39.4458 12.2082 39.0645 11.9222C38.6918 11.6362 38.1545 11.4932 37.4525 11.4932H34.6705V14.8472ZM37.7515 19.0592C39.3202 19.0592 40.1045 18.4742 40.1045 17.3042C40.1045 16.1602 39.3202 15.5882 37.7515 15.5882H34.6705V19.0592H37.7515ZM47.2678 13.9762C48.3425 13.9762 49.1615 14.2189 49.7248 14.7042C50.2968 15.1896 50.5828 15.9002 50.5828 16.8362C50.5828 17.8156 50.2795 18.5609 49.6728 19.0722C49.0748 19.5749 48.2081 19.8262 47.0728 19.8262H43.4588V10.7262H44.4078V13.9762H47.2678ZM47.0468 19.0592C47.8875 19.0592 48.5245 18.8729 48.9578 18.5002C49.3998 18.1276 49.6208 17.5772 49.6208 16.8492C49.6208 15.4539 48.7628 14.7562 47.0468 14.7562H44.4078V19.0592H47.0468ZM52.1558 10.7262H53.1048V19.8262H52.1558V10.7262ZM56.1668 10.7262H62.8228V11.5452H57.1158V14.5222H60.0928C61.1675 14.5222 61.9821 14.7432 62.5368 15.1852C63.1001 15.6272 63.3818 16.2686 63.3818 17.1092C63.3818 17.9846 63.0785 18.6562 62.4718 19.1242C61.8738 19.5922 61.0115 19.8262 59.8848 19.8262H56.1668V10.7262ZM59.8718 19.0592C60.7125 19.0592 61.3451 18.8989 61.7698 18.5782C62.2031 18.2576 62.4198 17.7809 62.4198 17.1482C62.4198 16.5242 62.2075 16.0606 61.7828 15.7572C61.3668 15.4452 60.7298 15.2892 59.8718 15.2892H57.1158V19.0592H59.8718ZM69.0181 10.7262C70.1795 10.7262 71.0895 11.0036 71.7481 11.5582C72.4068 12.1129 72.7361 12.8756 72.7361 13.8462C72.7361 14.8169 72.4068 15.5796 71.7481 16.1342C71.0895 16.6802 70.1795 16.9532 69.0181 16.9532H66.5741V19.8262H65.6121V10.7262H69.0181ZM68.9921 16.1082C69.8935 16.1082 70.5825 15.9132 71.0591 15.5232C71.5358 15.1246 71.7741 14.5656 71.7741 13.8462C71.7741 13.1096 71.5358 12.5462 71.0591 12.1562C70.5825 11.7576 69.8935 11.5582 68.9921 11.5582H66.5741V16.1082H68.9921ZM80.0816 17.3952H75.0116L73.9196 19.8262H72.9186L77.0786 10.7262H78.0276L82.1876 19.8262H81.1736L80.0816 17.3952ZM79.7306 16.6152L77.5466 11.7272L75.3626 16.6152H79.7306ZM89.4284 11.5582H86.2304V19.8262H85.2814V11.5582H82.0834V10.7262H89.4284V11.5582ZM94.926 13.9762C96.0007 13.9762 96.8197 14.2189 97.383 14.7042C97.955 15.1896 98.241 15.9002 98.241 16.8362C98.241 17.8156 97.9377 18.5609 97.331 19.0722C96.733 19.5749 95.8663 19.8262 94.731 19.8262H91.117V10.7262H92.066V13.9762H94.926ZM94.705 19.0592C95.5457 19.0592 96.1827 18.8729 96.616 18.5002C97.058 18.1276 97.279 17.5772 97.279 16.8492C97.279 15.4539 96.421 14.7562 94.705 14.7562H92.066V19.0592H94.705Z" fill="#7B8421"/>
</svg>
